# ProBuilder 5.0.6
# https://unity3d.com/unity/features/worldbuilding/probuilder
# 5/12/2023 4:33:08 AM

mtllib ./Door.mtl
o Door

g Door
v 12.50209 0.0005002022 0.2499994
v 12.50209 -5 0.2499994
v 1.362722 0.0005 0.2499999
v 1.362722 -5 0.2499999
v -1.477278 -5 0.2499999
v -12.50209 -5 0.2500006
v -1.477278 0.0005 0.2499999
v -12.50209 0.0005002022 0.2500006
v 12.50209 5 0.2499994
v 1.362722 5 0.2499999
v -1.477278 5 0.2499999
v -12.50209 5 0.2500006
v 12.50209 0.0005002022 -0.2500007
v 1.362722 0.0005 -0.2500001
v 12.50209 -5 -0.2500007
v 1.362722 -5 -0.2500001
v -1.477278 -5 -0.2500001
v -1.477278 0.0005 -0.2500001
v -12.50209 -5 -0.2499995
v -12.50209 0.0005002022 -0.2499995
v 12.50209 5 -0.2500007
v 1.362722 5 -0.2500001
v -1.477278 5 -0.2500001
v -12.50209 5 -0.2499995

vt 12.50209 0.0005002022
vt 12.50209 -5
vt 1.362722 0.0005
vt 1.362722 -5
vt -1.477278 -5
vt -12.50209 -5
vt -1.477278 0.0005
vt -12.50209 0.0005002022
vt 12.50209 5
vt 1.362722 5
vt -1.477278 5
vt -12.50209 5
vt -1.362722 0.0005
vt -1.362722 -5
vt 1.477278 -5
vt 1.477278 0.0005
vt -1.362722 5
vt 1.477278 5
vt -1.477278 0.2499999
vt 1.362722 0.2499999
vt -1.477278 -0.2500001
vt 1.362722 -0.2500001
vt 0.2500001 -5
vt -0.2499999 -5
vt 0.2500001 0.0005
vt -0.2499999 0.0005
vt 0.2499999 -5
vt -0.2500001 -5
vt 0.2499999 0.0005
vt -0.2500001 0.0005

vn 4.81573E-08 0 1
vn -5.885892E-08 0 -1
vn 0 -1 0
vn 1 0 0
vn -1 0 0

usemtl Wall
f 3/3/1 4/4/1 2/2/1 1/1/1
f 7/7/1 8/8/1 6/6/1 5/5/1
f 9/9/1 10/10/1 3/3/1 1/1/1
f 12/12/1 8/8/1 7/7/1 11/11/1
f 10/10/1 11/11/1 7/7/1 3/3/1
f 15/6/2 16/14/2 14/13/2 13/8/2
f 19/2/2 20/1/2 18/16/2 17/15/2
f 14/13/2 22/17/2 21/12/2 13/8/2
f 18/16/2 20/1/2 24/9/2 23/18/2
f 18/16/2 23/18/2 22/17/2 14/13/2
f 18/21/3 14/22/3 3/20/3 7/19/3
f 18/25/4 7/26/4 5/24/4 17/23/4
f 3/29/5 14/30/5 16/28/5 4/27/5

